<svg width="1440" height="308" viewBox="0 0 1440 308" fill="none" xmlns="http://www.w3.org/2000/svg">
<g opacity="0.03">
<g clip-path="url(#clip0_36_2752)">
<path d="M540.538 242.704H657.219C662.411 242.704 662.42 234.648 657.219 234.648H540.538C535.346 234.648 535.337 242.704 540.538 242.704Z" fill="black"/>
<path d="M488.166 287.32V346.12C488.166 351.302 496.222 351.312 496.222 346.12V287.32C496.222 282.137 488.166 282.128 488.166 287.32Z" fill="black"/>
<path d="M701.526 287.32V346.12C701.526 351.302 709.591 351.312 709.591 346.12V287.32C709.591 282.128 701.526 282.119 701.526 287.32Z" fill="black"/>
<path d="M687.079 257.161C686.937 256.267 686.473 255.457 685.774 254.882C685.076 254.307 684.191 254.009 683.287 254.042H514.47C511.74 255.875 509.393 258.222 507.56 260.952V350.057C507.56 355.248 515.625 355.248 515.625 350.057V262.107H682.132V350.057C682.132 355.248 690.197 355.258 690.197 350.057V260.952C690.229 260.049 689.929 259.165 689.355 258.467C688.781 257.769 687.971 257.304 687.079 257.161Z" fill="black"/>
<path d="M666.767 273.436H530.991C529.925 273.45 528.906 273.88 528.152 274.634C527.398 275.388 526.968 276.406 526.954 277.473V357.631C526.954 362.822 535.019 362.831 535.019 357.631V281.501H662.739V357.631C662.739 362.822 670.794 362.831 670.794 357.631V277.473C670.78 276.408 670.352 275.391 669.6 274.637C668.848 273.883 667.831 273.452 666.767 273.436Z" fill="black"/>
<path d="M647.372 292.839H550.385C549.321 292.853 548.305 293.282 547.552 294.034C546.8 294.787 546.371 295.803 546.357 296.867V369.451C546.357 374.642 554.413 374.651 554.413 369.451V300.895H643.335V369.451C643.335 374.642 651.4 374.651 651.4 369.451V296.867C651.386 295.803 650.957 294.787 650.205 294.034C649.453 293.282 648.436 292.853 647.372 292.839Z" fill="black"/>
<path d="M727.385 314.097V302.74L722.075 308.077C718.538 311.587 723.748 317.024 727.385 314.097Z" fill="black"/>
<path d="M217.079 303.304L227.435 313.669C231.072 317.306 236.809 311.642 233.136 307.969L161.407 236.248L151.051 225.883C147.414 222.246 141.677 227.911 145.35 231.584L217.079 303.304Z" fill="black"/>
<path d="M72.1202 242.022C75.5632 238.567 79.0152 235.127 82.4763 231.702C86.1133 228.065 80.4488 222.328 76.7755 226.001L5.05532 297.685C3.36415 299.367 1.68208 301.058 0 302.74V314.097C0.138973 313.988 0.26966 313.87 0.390969 313.742L72.1202 242.022Z" fill="black"/>
<path d="M113.954 227.62L217.606 331.272L232.363 346.038C236 349.675 241.737 344.01 238.064 340.337L133.775 236.039L119.018 221.282C118.378 220.592 117.499 220.17 116.559 220.1C115.62 220.031 114.689 220.32 113.954 220.91C113.219 220.32 112.288 220.031 111.348 220.1C110.409 220.17 109.53 220.592 108.89 221.282L4.62799 325.535L0 330.172V341.574L99.8336 241.704L113.954 227.62Z" fill="black"/>
<path d="M128.593 258.288L116.773 246.468C116.009 245.729 114.989 245.316 113.927 245.316C112.865 245.316 111.844 245.729 111.081 246.468L27.8953 329.708L15.948 341.655L15.0933 342.51C14.3518 343.274 13.937 344.296 13.937 345.361C13.937 346.425 14.3518 347.447 15.0933 348.211L18.412 351.53C19.168 352.286 20.1933 352.71 21.2624 352.71C22.3316 352.71 23.3569 352.286 24.1129 351.53C24.8689 350.774 25.2936 349.748 25.2936 348.679C25.2936 347.61 24.8689 346.585 24.1129 345.829L23.6401 345.356L104.853 264.143L113.945 255.051L195.312 336.418L207.132 348.238C210.769 351.875 216.506 346.211 212.833 342.537L128.593 258.288Z" fill="black"/>
<path d="M185.383 342.51L116.8 273.927C116.037 273.188 115.016 272.775 113.954 272.775C112.892 272.775 111.871 273.188 111.108 273.927L98.2426 286.792L42.5249 342.51C41.7834 343.274 41.3687 344.296 41.3687 345.361C41.3687 346.425 41.7834 347.447 42.5249 348.211L83.313 388.999H94.7148L51.0717 345.356L103.934 292.493L113.936 282.492L176.827 345.356L133.184 388.999H144.568L185.356 348.211C186.101 347.451 186.521 346.43 186.526 345.366C186.531 344.302 186.121 343.277 185.383 342.51Z" fill="black"/>
<path d="M159.115 345.511C159.12 345.459 159.12 345.407 159.115 345.356C159.12 345.308 159.12 345.259 159.115 345.211C159.12 344.7 159.019 344.194 158.819 343.725C158.618 343.256 158.323 342.833 157.951 342.483L116.8 301.331C116.037 300.592 115.016 300.179 113.954 300.179C112.892 300.179 111.871 300.592 111.108 301.331L69.9561 342.51C69.2146 343.274 68.7998 344.296 68.7998 345.361C68.7998 346.425 69.2146 347.447 69.9561 348.211L110.744 388.999H117.163L157.951 348.211C158.32 347.864 158.613 347.446 158.813 346.981C159.013 346.517 159.116 346.016 159.115 345.511ZM113.954 380.816L78.4938 345.356L113.954 309.896L149.414 345.356L113.954 380.816Z" fill="black"/>
<path d="M540.538 0.248224H657.219C662.411 0.248224 662.42 -7.81665 657.219 -7.81665H540.538C535.346 -7.81665 535.337 0.248224 540.538 0.248224Z" fill="black"/>
<path d="M488.166 44.8642V103.655C488.166 108.838 496.222 108.847 496.222 103.655V44.8642C496.222 39.6725 488.166 39.6634 488.166 44.8642Z" fill="black"/>
<path d="M701.526 44.8551V103.655C701.526 108.847 709.591 108.856 709.591 103.655V44.8551C709.591 39.6725 701.526 39.6634 701.526 44.8551Z" fill="black"/>
<path d="M687.079 14.6958C686.935 13.8033 686.471 12.9939 685.773 12.4196C685.074 11.8454 684.191 11.5458 683.287 11.5772H514.47C511.74 13.4102 509.393 15.7573 507.56 18.4874V107.592C507.56 112.784 515.625 112.793 515.625 107.592V19.6421H682.132V107.592C682.132 112.784 690.197 112.793 690.197 107.592V18.4874C690.227 17.5844 689.926 16.7016 689.353 16.0038C688.779 15.3061 687.97 14.8412 687.079 14.6958Z" fill="black"/>
<path d="M603.875 186.15H594.174C588.991 186.15 588.982 194.215 594.174 194.215H603.875C609.067 194.215 609.067 186.15 603.875 186.15Z" fill="black"/>
<path d="M611.149 166.756H586.599C581.417 166.756 581.408 174.821 586.599 174.821H611.149C616.34 174.821 616.349 166.756 611.149 166.756Z" fill="black"/>
<path d="M666.767 30.9802H530.991C529.926 30.9943 528.909 31.4229 528.155 32.175C527.401 32.9271 526.971 33.9434 526.954 35.0081V115.175C526.954 120.358 535.019 120.367 535.019 115.175V39.036H662.739V115.175C662.739 120.358 670.794 120.367 670.794 115.175V35.0081C670.78 33.9443 670.351 32.9279 669.599 32.1756C668.847 31.4233 667.83 30.9943 666.767 30.9802Z" fill="black"/>
<path d="M622.969 147.362H574.78C569.597 147.362 569.588 155.418 574.78 155.418H622.969C628.16 155.418 628.17 147.362 622.969 147.362Z" fill="black"/>
<path d="M647.372 50.3741H550.385C549.321 50.3883 548.305 50.8172 547.552 51.5695C546.8 52.3218 546.371 53.3382 546.357 54.402V126.995C546.357 132.178 554.413 132.187 554.413 126.995V58.439H643.335V126.995C643.335 132.178 651.4 132.187 651.4 126.995V54.402C651.384 53.3389 650.954 52.3239 650.202 51.572C649.451 50.8202 648.436 50.3906 647.372 50.3741Z" fill="black"/>
<path d="M630.797 70.9409L630.715 70.8681C630.361 70.5072 629.935 70.2232 629.466 70.0339C628.997 69.8446 628.494 69.7541 627.988 69.768H569.797C568.732 69.7845 567.716 70.2154 566.964 70.9692C566.212 71.7229 565.783 72.7402 565.769 73.805V131.996C565.785 133.059 566.215 134.074 566.967 134.826C567.719 135.578 568.734 136.007 569.797 136.024H627.988C629.052 136.01 630.07 135.581 630.824 134.829C631.577 134.077 632.008 133.06 632.025 131.996V73.805C632.038 73.3008 631.949 72.7993 631.763 72.3305C631.577 71.8617 631.298 71.4354 630.943 71.0773L630.797 70.9409ZM623.942 127.959H573.816V77.8329H623.942V127.959Z" fill="black"/>
<path d="M589.182 116.63H608.575C609.641 116.616 610.658 116.186 611.411 115.431C612.164 114.677 612.592 113.658 612.603 112.593V93.199C612.618 92.6954 612.531 92.194 612.346 91.7252C612.162 91.2564 611.884 90.8298 611.53 90.4713L611.394 90.3349L611.321 90.2621C610.964 89.905 610.538 89.6241 610.069 89.4366C609.601 89.249 609.098 89.1587 608.594 89.171H589.182C588.117 89.1851 587.099 89.6137 586.346 90.3658C585.592 91.1179 585.161 92.1343 585.145 93.199V112.593C585.159 113.659 585.589 114.678 586.343 115.432C587.097 116.186 588.115 116.616 589.182 116.63ZM593.209 97.2268H604.548V108.565H593.209V97.2268Z" fill="black"/>
<path d="M618.359 180.485C618.286 180.658 618.25 180.822 618.195 180.994C618.106 181.14 618.027 181.292 617.959 181.449C612.259 195.218 609.348 209.981 609.394 224.883C609.394 230.075 617.477 230.084 617.459 224.883C617.461 210.909 620.211 197.072 625.551 184.158C633.565 165.687 646.763 149.935 663.546 138.81C680.329 127.685 699.977 121.664 720.111 121.476C722.557 121.476 724.976 121.603 727.385 121.794V113.72C724.976 113.538 722.548 113.429 720.111 113.411C676.077 113.784 635.907 139.997 618.359 180.485Z" fill="black"/>
<path d="M721.593 307.368C719.52 307.368 717.456 307.368 715.383 307.259C714.316 307.264 713.294 307.69 712.54 308.444C711.786 309.199 711.36 310.22 711.355 311.287C711.367 312.355 711.794 313.377 712.545 314.135C713.297 314.894 714.315 315.33 715.383 315.351C717.456 315.46 719.52 315.497 721.593 315.47C722.757 315.47 723.921 315.406 725.075 315.342C725.902 315.289 726.699 315.016 727.385 314.551V308.014C726.729 307.498 725.909 307.237 725.075 307.277C723.921 307.305 722.757 307.35 721.593 307.368Z" fill="black"/>
<path d="M717.138 132.86C692.719 133.948 669.726 144.67 653.195 162.676C636.665 180.682 627.944 204.506 628.942 228.929C629.152 234.103 637.207 234.13 636.998 228.929C635.116 182.64 670.54 142.925 717.156 140.925C718.144 140.888 719.135 140.87 720.129 140.87C722.575 140.87 725.003 141.034 727.403 141.261V133.169C724.978 132.951 722.554 132.832 720.129 132.814C719.12 132.814 718.129 132.832 717.138 132.86Z" fill="black"/>
<path d="M708.018 286.856C702.945 285.947 700.744 293.703 705.881 294.63C712.973 295.92 720.209 296.226 727.385 295.539V287.492C720.933 288.221 714.409 288.007 708.018 286.856Z" fill="black"/>
<path d="M649.582 238.221C650.491 243.322 658.256 241.158 657.356 236.075C655.724 226.858 656.117 217.397 658.506 208.347C660.895 199.296 665.223 190.874 671.191 183.663C677.159 176.452 684.624 170.625 693.068 166.586C701.512 162.548 710.733 160.393 720.093 160.273C722.525 160.298 724.953 160.462 727.367 160.764V152.663C724.975 152.399 722.557 152.235 720.093 152.208C674.786 152.763 641.699 193.896 649.582 238.221Z" fill="black"/>
<path d="M688.379 182.304C688.242 182.413 688.133 182.531 688.006 182.649C687.851 182.736 687.702 182.834 687.56 182.94C670.994 196.288 663.62 218.6 669.767 239.13C672.455 248.011 677.428 256.031 684.189 262.386C690.95 268.741 699.261 273.21 708.291 275.345C714.554 276.781 721.032 277.021 727.385 276.054V267.68C708.782 270.517 688.588 261.889 679.723 242.849C670.858 223.81 677.077 201.998 692.897 188.986C700.76 183.09 710.284 179.828 720.111 179.667C722.551 179.71 724.983 179.95 727.385 180.385V172.202C724.976 171.84 722.546 171.633 720.111 171.584C708.667 171.717 697.559 175.47 688.379 182.304Z" fill="black"/>
<path d="M688.988 212.826C686.696 219.244 686.425 226.21 688.213 232.786C690.002 239.362 693.763 245.232 698.99 249.605C702.868 252.861 707.468 255.145 712.407 256.266C717.345 257.387 722.48 257.314 727.385 256.051V248.068C725.03 248.804 722.578 249.184 720.111 249.196C713.481 249.136 707.139 246.476 702.451 241.788C697.763 237.1 695.103 230.758 695.043 224.128C695.043 210.171 706.445 199.443 720.111 199.061C722.581 199.132 725.028 199.545 727.385 200.288V191.969C725.001 191.39 722.563 191.067 720.111 191.005C706.218 191.387 693.843 199.624 688.988 212.826Z" fill="black"/>
<path d="M720.111 210.399C719.71 210.375 719.308 210.415 718.92 210.517C712.01 211.426 706.382 216.782 706.382 224.156C706.427 227.783 707.888 231.249 710.453 233.814C713.018 236.379 716.484 237.84 720.111 237.885C722.692 237.885 725.218 237.14 727.385 235.739V212.672C725.536 211.531 723.466 210.797 721.311 210.517C720.92 210.416 720.515 210.376 720.111 210.399ZM720.111 229.793C712.774 229.793 712.837 218.882 720.111 218.464C727.385 218.855 727.431 229.793 720.111 229.793Z" fill="black"/>
<path d="M727.385 71.6774V60.2756L722.075 65.5855C718.538 69.1315 723.748 74.5597 727.385 71.6774Z" fill="black"/>
<path d="M717.256 97.8361C713.619 101.473 719.284 107.21 722.957 103.537L727.385 99.109V87.7073L717.256 97.8361Z" fill="black"/>
<path d="M176.845 121.476H293.527C298.719 121.476 298.728 113.411 293.527 113.411H176.845C171.654 113.411 171.645 121.476 176.845 121.476Z" fill="black"/>
<path d="M132.529 224.883V166.092C132.529 160.9 124.474 160.891 124.474 166.092V224.883C124.474 230.075 132.529 230.084 132.529 224.883Z" fill="black"/>
<path d="M345.899 224.883V166.092C345.899 160.9 337.834 160.891 337.834 166.092V224.883C337.834 230.075 345.899 230.084 345.899 224.883Z" fill="black"/>
<path d="M151.933 228.829V140.87H318.44V228.829C318.44 234.012 326.505 234.021 326.505 228.829V139.724C324.675 136.994 322.327 134.65 319.595 132.823H150.778C149.875 132.79 148.992 133.087 148.293 133.66C147.595 134.233 147.13 135.041 146.986 135.933C146.093 136.074 145.282 136.538 144.708 137.237C144.133 137.936 143.834 138.82 143.868 139.724V228.829C143.868 234.012 151.933 234.021 151.933 228.829Z" fill="black"/>
<path d="M240.183 307.386H230.481C225.299 307.386 225.289 315.442 230.481 315.442H240.183C245.374 315.442 245.383 307.386 240.183 307.386Z" fill="black"/>
<path d="M247.456 287.984H222.907C217.724 287.984 217.715 296.048 222.907 296.048H247.456C252.648 296.048 252.657 287.984 247.456 287.984Z" fill="black"/>
<path d="M299.046 160.273V236.403C299.046 241.594 307.102 241.604 307.102 236.403V156.236C307.086 155.173 306.656 154.158 305.904 153.406C305.152 152.654 304.137 152.224 303.074 152.208H167.299C166.234 152.222 165.217 152.651 164.463 153.403C163.709 154.155 163.278 155.171 163.262 156.236V236.403C163.262 241.594 171.327 241.604 171.327 236.403V160.273H299.046Z" fill="black"/>
<path d="M259.276 268.59H211.087C205.905 268.59 205.895 276.654 211.087 276.654H259.276C264.468 276.654 264.477 268.59 259.276 268.59Z" fill="black"/>
<path d="M279.643 248.223C279.643 253.415 287.708 253.424 287.708 248.223V175.639C287.694 174.574 287.265 173.557 286.513 172.803C285.761 172.049 284.745 171.619 283.68 171.602H186.692C185.627 171.616 184.609 172.046 183.857 172.801C183.104 173.555 182.676 174.574 182.665 175.639V248.223C182.665 253.415 190.72 253.424 190.72 248.223V179.667H279.643V248.223Z" fill="black"/>
<path d="M268.314 253.224V195.033C268.327 194.529 268.238 194.027 268.052 193.558C267.866 193.089 267.587 192.663 267.232 192.305L267.105 192.169L267.023 192.096C266.666 191.738 266.24 191.457 265.772 191.27C265.303 191.082 264.8 190.992 264.295 191.005H206.105C205.041 191.021 204.026 191.451 203.275 192.203C202.523 192.955 202.093 193.97 202.077 195.033V253.224C202.091 254.287 202.52 255.304 203.272 256.056C204.024 256.808 205.041 257.237 206.105 257.251H264.295C265.357 257.233 266.37 256.802 267.12 256.05C267.869 255.299 268.298 254.285 268.314 253.224ZM260.249 249.196H210.123V199.061H260.249V249.196Z" fill="black"/>
<path d="M225.489 237.858H244.883C245.947 237.844 246.963 237.415 247.716 236.662C248.468 235.91 248.897 234.894 248.911 233.83V214.427C248.928 213.923 248.841 213.421 248.657 212.952C248.472 212.483 248.194 212.056 247.838 211.699C247.793 211.653 247.751 211.604 247.711 211.554L247.629 211.481C247.272 211.124 246.846 210.843 246.377 210.655C245.908 210.468 245.406 210.377 244.901 210.39H225.489C224.424 210.404 223.407 210.832 222.653 211.585C221.9 212.337 221.469 213.353 221.452 214.418V233.821C221.466 234.887 221.896 235.906 222.65 236.66C223.404 237.414 224.423 237.844 225.489 237.858ZM229.517 218.464H240.855V229.793H229.517V218.464Z" fill="black"/>
<path d="M356.419 234.648C312.385 235.012 272.215 261.234 254.667 301.722C254.594 301.886 254.558 302.058 254.503 302.222C254.415 302.369 254.336 302.521 254.267 302.677C248.571 316.447 245.66 331.209 245.702 346.111C245.702 351.302 253.785 351.311 253.766 346.111C253.772 332.14 256.522 318.306 261.859 305.395C269.872 286.923 283.07 271.169 299.852 260.043C316.635 248.916 336.283 242.893 356.419 242.704C412.791 243.149 459.262 289.538 459.062 346.12C459.062 351.302 467.108 351.311 467.127 346.12C467.345 285.156 417.164 235.121 356.419 234.648Z" fill="black"/>
<path d="M356.419 254.042C355.427 254.042 354.436 254.042 353.445 254.042C329.024 255.13 306.03 265.853 289.5 283.862C272.969 301.87 264.249 325.696 265.25 350.12C265.459 355.285 273.524 355.312 273.306 350.12C271.424 303.831 306.847 264.116 353.464 262.107C354.455 262.107 355.446 262.107 356.437 262.107C404.108 262.561 441.732 302.704 439.559 350.22C439.322 355.403 447.378 355.394 447.614 350.22C449.969 298.312 408.299 254.533 356.419 254.042Z" fill="black"/>
<path d="M356.419 273.436C311.094 273.99 278.007 315.133 285.89 359.449C286.799 364.55 294.564 362.386 293.664 357.303C286.69 318.115 316.676 281.992 356.401 281.501C396.052 281.983 426.039 317.979 419.192 357.121C418.283 362.195 426.066 364.395 426.966 359.267C434.731 314.997 401.662 273.99 356.419 273.436Z" fill="black"/>
<path d="M405.444 326.526C397.552 306.223 378.049 293.212 356.418 292.884C344.981 292.988 333.871 296.716 324.686 303.531C324.556 303.636 324.431 303.748 324.313 303.868C324.159 303.955 324.01 304.052 323.868 304.159C307.302 317.506 299.928 339.828 306.074 360.349C309.634 372.047 317.115 382.162 327.259 388.99H350.517C336.243 387.081 322.813 378.598 316.03 364.023C307.211 345.065 313.384 323.171 329.205 310.16C337.075 304.284 346.598 301.041 356.418 300.895C390.915 301.495 412.736 340.137 393.697 369.605C390.281 374.907 385.741 379.392 380.399 382.744C375.057 386.095 369.043 388.231 362.783 388.999H384.786C404.135 376.097 414.937 350.966 405.444 326.526Z" fill="black"/>
<path d="M580.771 182.076C584.214 185.531 587.667 188.983 591.128 192.432C594.765 196.069 600.502 190.414 596.828 186.731L525.099 115.011L514.743 104.655C511.106 101.018 505.369 106.683 509.042 110.356L580.771 182.076Z" fill="black"/>
<path d="M364.083 192.514L435.813 120.776L446.169 110.42C449.806 106.783 444.141 101.037 440.468 104.719L368.748 176.439L358.383 186.795C354.709 190.487 360.41 196.188 364.083 192.514Z" fill="black"/>
<path d="M359.265 224.765L463.526 120.503L477.646 106.392L581.299 210.044L596.056 224.801C599.693 228.438 605.43 222.783 601.757 219.1L497.468 114.802L482.711 100.045C479.352 99.5607 475.941 99.5607 472.582 100.045L368.321 204.307L353.564 219.064C349.89 222.737 355.591 228.447 359.265 224.765Z" fill="black"/>
<path d="M492.285 137.06L480.465 125.24C479.701 124.499 478.679 124.084 477.615 124.084C476.55 124.084 475.528 124.499 474.764 125.24L391.56 208.453L379.613 220.391L378.758 221.255C378.018 222.017 377.603 223.038 377.603 224.101C377.603 225.164 378.018 226.185 378.758 226.947L382.077 230.275C382.452 230.649 382.896 230.946 383.385 231.148C383.874 231.351 384.398 231.455 384.928 231.455C385.457 231.455 385.981 231.351 386.47 231.148C386.959 230.946 387.404 230.649 387.778 230.275C388.152 229.9 388.449 229.456 388.652 228.967C388.854 228.478 388.959 227.954 388.959 227.424C388.959 226.895 388.854 226.371 388.652 225.882C388.449 225.392 388.152 224.948 387.778 224.574C387.623 224.41 387.469 224.256 387.305 224.101L468.527 142.888L477.619 133.796L558.986 215.163L570.806 226.983C574.443 230.62 580.18 224.965 576.507 221.291L492.285 137.06Z" fill="black"/>
<path d="M480.492 152.699C479.728 151.958 478.706 151.543 477.642 151.543C476.577 151.543 475.555 151.958 474.791 152.699L461.935 165.556L406.217 221.282C405.476 222.044 405.062 223.065 405.062 224.128C405.062 225.191 405.476 226.212 406.217 226.974L474.791 295.557C475.555 296.299 476.577 296.714 477.642 296.714C478.706 296.714 479.728 296.299 480.492 295.557C503.356 272.699 526.217 249.838 549.075 226.974C549.816 226.212 550.231 225.191 550.231 224.128C550.231 223.065 549.816 222.044 549.075 221.282L480.492 152.699ZM477.646 287.002L414.764 224.128L467.636 171.256L477.637 161.255L540.51 224.137L477.646 287.002Z" fill="black"/>
<path d="M433.649 221.282C432.908 222.044 432.493 223.065 432.493 224.128C432.493 225.191 432.908 226.212 433.649 226.974L474.791 268.126C475.555 268.867 476.577 269.282 477.642 269.282C478.706 269.282 479.729 268.867 480.492 268.126L521.644 226.974C522.019 226.627 522.316 226.204 522.517 225.734C522.717 225.264 522.816 224.757 522.808 224.246C522.812 224.192 522.812 224.137 522.808 224.083C522.812 224.037 522.812 223.992 522.808 223.946C522.812 223.436 522.711 222.93 522.511 222.461C522.311 221.991 522.016 221.569 521.644 221.219L480.492 180.067C479.729 179.325 478.706 178.911 477.642 178.911C476.577 178.911 475.555 179.325 474.791 180.067L433.649 221.282ZM513.088 224.128L477.628 259.588L442.168 224.128L477.628 188.668L513.088 224.128Z" fill="black"/>
<path d="M461.08 226.974L474.792 240.694C475.555 241.436 476.578 241.851 477.642 241.851C478.706 241.851 479.729 241.436 480.492 240.694L494.213 226.974C494.587 226.627 494.885 226.204 495.085 225.734C495.286 225.264 495.385 224.757 495.377 224.246C495.381 224.192 495.381 224.137 495.377 224.083C495.381 224.037 495.381 223.992 495.377 223.946C495.381 223.436 495.28 222.93 495.08 222.461C494.879 221.991 494.584 221.568 494.213 221.219L480.492 207.498C479.729 206.757 478.706 206.342 477.642 206.342C476.578 206.342 475.555 206.757 474.792 207.498L461.08 221.219C460.32 221.983 459.894 223.018 459.894 224.096C459.894 225.175 460.32 226.209 461.08 226.974ZM477.647 216.109L485.657 224.128L477.647 232.148L469.627 224.128L477.647 216.109Z" fill="black"/>
<path d="M95.3692 224.883C95.3692 230.075 103.416 230.084 103.434 224.883C103.652 166.383 57.427 117.939 0 113.72V121.794C53.0627 125.968 95.5602 170.784 95.3692 224.883Z" fill="black"/>
<path d="M1.72754 311.278C1.689 310.637 1.51512 310.012 1.21736 309.443C0.919597 308.874 0.504704 308.374 0 307.978L0 314.515C0.542619 314.17 0.986853 313.691 1.28955 313.124C1.59226 312.557 1.74314 311.921 1.72754 311.278Z" fill="black"/>
<path d="M75.848 228.974C75.6116 234.157 83.6674 234.148 83.9038 228.974C86.1678 179.512 48.4438 137.442 0 133.151V141.243C44.1613 145.489 77.9029 183.913 75.848 228.974Z" fill="black"/>
<path d="M4.70072 286.874C3.13685 287.156 1.57297 287.374 0 287.538V295.585C2.27308 295.373 4.55525 295.07 6.84651 294.676C11.9382 293.73 9.78333 285.956 4.70072 286.874Z" fill="black"/>
<path d="M55.5177 235.885C54.6084 240.967 62.3914 243.159 63.2916 238.03C70.62 196.206 41.47 157.245 0 152.663V160.782C35.9601 165.246 61.9368 199.188 55.5177 235.885Z" fill="black"/>
<path d="M41.7519 205.334C38.3342 196.621 32.6711 188.968 25.3379 183.152C18.0047 177.335 9.26268 173.564 0 172.22L0 180.403C30.1592 185.859 47.6619 221.055 30.0046 248.396C26.6707 253.562 22.2669 257.953 17.0907 261.272C11.9145 264.591 6.08646 266.761 0 267.635L0 276.009C31.3321 271.217 54.3175 237.648 41.7519 205.334Z" fill="black"/>
<path d="M25.2948 218.182C22.9126 204.816 12.6201 194.987 0 191.969V200.288C5.12324 201.839 9.61464 204.991 12.8153 209.282C16.0161 213.572 17.7576 218.775 17.7846 224.128C17.7363 229.488 15.9883 234.693 12.7922 238.995C9.59617 243.298 5.11704 246.475 0 248.068L0 256.051C15.8024 252.114 28.6408 236.894 25.2948 218.182Z" fill="black"/>
<path d="M6.42826 224.656C6.5379 222.264 5.99823 219.887 4.8665 217.777C3.73477 215.668 2.05316 213.903 0 212.672L0 235.712C1.87356 234.513 3.43413 232.884 4.55213 230.962C5.67012 229.039 6.3133 226.877 6.42826 224.656Z" fill="black"/>
<path d="M217.079 60.8485L227.435 71.2047C231.072 74.8416 236.809 69.1771 233.136 65.5038L161.407 -6.21636L151.051 -16.5725C147.414 -20.2094 141.677 -14.554 145.35 -10.8807L217.079 60.8485Z" fill="black"/>
<path d="M72.1202 -0.433617L82.4763 -10.7988C86.1133 -14.4358 80.4488 -20.173 76.7755 -16.4997L5.05532 55.2295L0 60.2757V71.6775C0.138889 71.5724 0.269589 71.4569 0.390969 71.332L72.1202 -0.433617Z" fill="black"/>
<path d="M113.954 -14.845L217.606 88.8073L232.336 103.5C235.973 107.137 241.71 101.473 238.037 97.7996C203.28 63.0731 168.526 28.3313 133.775 -6.42553L119.018 -21.1824C118.376 -21.871 117.498 -22.292 116.559 -22.3611C115.62 -22.4302 114.69 -22.1424 113.954 -21.5551C113.218 -22.1424 112.288 -22.4302 111.349 -22.3611C110.41 -22.292 109.531 -21.871 108.89 -21.1824L4.62799 83.0792L0 87.7071V99.1089L99.8336 -0.724659L113.954 -14.845Z" fill="black"/>
<path d="M128.593 15.8324L116.773 4.01244C116.012 3.26936 114.99 2.85339 113.927 2.85339C112.863 2.85339 111.842 3.26936 111.081 4.01244L27.8953 87.2434L15.948 99.1908L15.0933 100.045C14.3518 100.809 13.937 101.831 13.937 102.896C13.937 103.96 14.3518 104.983 15.0933 105.746L18.412 109.065C19.168 109.821 20.1933 110.246 21.2624 110.246C22.3316 110.246 23.3569 109.821 24.1129 109.065C24.8689 108.309 25.2936 107.284 25.2936 106.215C25.2936 105.145 24.8689 104.12 24.1129 103.364L23.6492 102.9L104.862 21.6697C107.892 18.6389 110.923 15.6082 113.954 12.5774L195.321 93.9445L207.141 105.764C210.778 109.401 216.515 103.737 212.842 100.064L128.593 15.8324Z" fill="black"/>
<path d="M114.636 192.523L113.954 193.205L113.272 192.523C109.635 188.886 103.898 194.551 107.571 198.224L111.108 201.761C111.871 202.5 112.892 202.913 113.954 202.913C115.016 202.913 116.037 202.5 116.8 201.761L120.337 198.224C124.01 194.551 118.318 188.85 114.636 192.523Z" fill="black"/>
<path d="M116.8 31.4712C116.039 30.7281 115.018 30.3121 113.954 30.3121C112.891 30.3121 111.869 30.7281 111.108 31.4712L98.2426 44.3277L42.5249 100.045C41.7834 100.809 41.3687 101.831 41.3687 102.896C41.3687 103.96 41.7834 104.983 42.5249 105.746L111.108 174.33C111.871 175.068 112.892 175.481 113.954 175.481C115.016 175.481 116.037 175.068 116.8 174.33L185.383 105.746C186.125 104.983 186.54 103.96 186.54 102.896C186.54 101.831 186.125 100.809 185.383 100.045L116.8 31.4712ZM113.954 165.774L51.0808 102.9L103.943 50.0286L113.945 40.0271L176.818 102.909L113.954 165.774Z" fill="black"/>
<path d="M69.9561 100.046C69.2146 100.809 68.7998 101.832 68.7998 102.896C68.7998 103.96 69.2146 104.983 69.9561 105.746L111.108 146.898C111.871 147.637 112.892 148.05 113.954 148.05C115.016 148.05 116.037 147.637 116.8 146.898L157.951 105.746C158.324 105.397 158.619 104.974 158.819 104.505C159.02 104.035 159.12 103.529 159.115 103.019C159.12 102.964 159.12 102.909 159.115 102.855C159.12 102.807 159.12 102.758 159.115 102.71C159.118 102.199 159.016 101.694 158.816 101.225C158.616 100.756 158.322 100.333 157.951 99.9819L116.8 58.9483C116.039 58.2052 115.017 57.7892 113.954 57.7892C112.89 57.7892 111.869 58.2052 111.108 58.9483L69.9561 100.046ZM149.396 102.9L113.936 138.361L78.4756 102.9L113.936 67.4405L149.396 102.9Z" fill="black"/>
<path d="M97.3877 105.746L111.108 119.467C111.871 120.205 112.892 120.619 113.954 120.619C115.016 120.619 116.037 120.205 116.8 119.467L130.52 105.746C130.892 105.397 131.188 104.974 131.388 104.505C131.588 104.035 131.689 103.529 131.684 103.019C131.688 102.964 131.688 102.909 131.684 102.855C131.688 102.807 131.688 102.758 131.684 102.71C131.687 102.199 131.585 101.694 131.385 101.225C131.185 100.756 130.89 100.333 130.52 99.9818L116.8 86.2706C116.039 85.5275 115.017 85.1116 113.954 85.1116C112.89 85.1116 111.869 85.5275 111.108 86.2706L97.3877 100.045C96.6462 100.809 96.2314 101.832 96.2314 102.896C96.2314 103.96 96.6462 104.983 97.3877 105.746ZM113.954 94.8356L121.973 102.855L113.954 110.865L105.935 102.855L113.954 94.8356Z" fill="black"/>
<path d="M721.593 64.9128C719.52 64.9128 717.456 64.9128 715.383 64.7946C714.315 64.8018 713.294 65.2297 712.539 65.9855C711.785 66.7413 711.36 67.764 711.355 68.8316C711.378 69.8926 711.81 70.9037 712.56 71.6541C713.311 72.4045 714.322 72.8363 715.383 72.8595C717.456 72.9595 719.52 73.005 721.593 72.9686C722.757 72.9686 723.921 72.905 725.075 72.8413C725.903 72.7931 726.701 72.5196 727.385 72.0503V65.5129C726.729 64.9968 725.908 64.7382 725.075 64.7856C723.921 64.8492 722.757 64.8856 721.593 64.9128Z" fill="black"/>
<path d="M708.018 44.4005C702.945 43.4913 700.744 51.247 705.881 52.1744C712.973 53.469 720.209 53.7749 727.385 53.0837V45.0461C720.932 45.7676 714.409 45.5502 708.018 44.4005Z" fill="black"/>
<path d="M649.582 -4.24332C650.491 0.85746 658.256 -1.30652 657.356 -6.38003C655.723 -15.5977 656.114 -25.0602 658.502 -34.1116C660.891 -43.163 665.219 -51.5866 671.187 -58.7986C677.155 -66.0106 684.621 -71.8383 693.065 -75.8777C701.51 -79.9171 710.733 -82.0716 720.093 -82.1917C722.525 -82.1637 724.954 -81.9967 727.367 -81.6916V-89.802C724.975 -90.0657 722.557 -90.2202 720.093 -90.2566C674.786 -89.6929 641.699 -48.5592 649.582 -4.24332Z" fill="black"/>
<path d="M688.379 -60.161C688.242 -60.061 688.133 -59.9337 688.006 -59.8246C687.851 -59.7373 687.702 -59.6401 687.56 -59.5336C670.994 -46.1861 663.62 -23.8645 669.767 -3.34316C672.459 5.53185 677.434 13.5445 684.195 19.8934C690.955 26.2423 699.264 30.705 708.291 32.8352C714.554 34.2706 721.032 34.5112 727.385 33.5443V25.1794C708.782 28.0071 688.588 19.3785 679.723 0.339241C670.858 -18.7001 677.077 -40.5125 692.897 -53.5145C700.763 -59.4013 710.288 -62.6506 720.111 -62.7978C722.551 -62.7545 724.983 -62.5143 727.385 -62.0795V-70.2625C720.538 -71.3445 713.542 -71.0061 706.831 -69.2682C700.121 -67.5304 693.84 -64.4304 688.379 -60.161Z" fill="black"/>
<path d="M688.988 -29.6382C686.694 -23.2207 686.423 -16.2542 688.212 -9.67793C690 -3.10165 693.762 2.76818 698.99 7.14021C702.865 10.4026 707.465 12.6901 712.405 13.8115C717.344 14.933 722.481 14.8559 727.385 13.5866V5.6036C725.03 6.33949 722.578 6.71951 720.111 6.73107C713.48 6.67409 707.137 4.01475 702.449 -0.674026C697.76 -5.3628 695.101 -11.7058 695.044 -18.3364C695.044 -32.284 706.445 -43.013 720.111 -43.3948C722.582 -43.3321 725.031 -42.9188 727.385 -42.1674V-50.4959C725 -51.0659 722.562 -51.3888 720.111 -51.4597C706.218 -51.0687 693.843 -42.8311 688.988 -29.6382Z" fill="black"/>
<path d="M240.183 64.9219H230.481C225.299 64.9219 225.289 72.9867 230.481 72.9867H240.183C245.374 72.9867 245.383 64.9219 240.183 64.9219Z" fill="black"/>
<path d="M247.456 45.528H222.907C217.724 45.528 217.715 53.5838 222.907 53.5838H247.456C252.648 53.5838 252.657 45.528 247.456 45.528Z" fill="black"/>
<path d="M259.276 26.125H211.087C205.905 26.125 205.895 34.1899 211.087 34.1899H259.276C264.468 34.1899 264.477 26.125 259.276 26.125Z" fill="black"/>
<path d="M279.643 -62.7978V5.75818C279.643 10.9499 287.708 10.959 287.708 5.75818V-66.8257C287.694 -67.8896 287.265 -68.9059 286.513 -69.6583C285.76 -70.4106 284.744 -70.8395 283.68 -70.8536H186.692C185.629 -70.8395 184.612 -70.4106 183.86 -69.6583C183.108 -68.9059 182.679 -67.8896 182.665 -66.8257V5.75818C182.665 10.9499 190.72 10.959 190.72 5.75818V-62.7978H279.643Z" fill="black"/>
<path d="M268.314 10.759V-47.4318C268.33 -47.9362 268.242 -48.4386 268.056 -48.9077C267.87 -49.3769 267.589 -49.8029 267.232 -50.1595C267.192 -50.2102 267.15 -50.2587 267.105 -50.3049L267.023 -50.3777C266.666 -50.7352 266.24 -51.0164 265.771 -51.204C265.303 -51.3916 264.8 -51.4817 264.295 -51.4688H206.105C205.041 -51.4523 204.026 -51.0227 203.275 -50.2709C202.523 -49.519 202.093 -48.504 202.077 -47.4409V10.7499C202.091 11.8146 202.519 12.8319 203.271 13.5857C204.024 14.3395 205.04 14.7704 206.105 14.7869H264.295C265.357 14.7682 266.37 14.3375 267.119 13.5859C267.869 12.8343 268.298 11.8206 268.314 10.759ZM260.249 6.73113H210.123V-43.3948H260.249V6.73113Z" fill="black"/>
<path d="M356.419 -7.81665C312.385 -7.45296 272.215 18.7693 254.667 59.2573C254.594 59.4301 254.558 59.5938 254.503 59.7574C254.413 59.9062 254.334 60.0612 254.267 60.2211C248.57 73.9911 245.659 88.7535 245.702 103.655C245.702 108.838 253.785 108.847 253.766 103.655C253.772 89.6815 256.522 75.8449 261.859 62.9306C269.872 44.4583 283.069 28.7056 299.852 17.5804C316.635 6.45515 336.284 0.434715 356.419 0.248224C412.791 0.684655 459.262 47.0827 459.062 103.655C459.062 108.847 467.108 108.847 467.127 103.655C467.345 42.7002 417.164 -7.34385 356.419 -7.81665Z" fill="black"/>
<path d="M361.383 186.013C360.228 186.077 359.064 186.122 357.901 186.141C355.828 186.141 353.764 186.141 351.69 186.031C350.624 186.036 349.602 186.462 348.848 187.216C348.093 187.971 347.667 188.993 347.663 190.059C347.686 191.12 348.118 192.131 348.868 192.882C349.618 193.632 350.629 194.064 351.69 194.087C353.764 194.196 355.828 194.233 357.901 194.205C359.064 194.205 360.228 194.142 361.383 194.078C362.448 194.059 363.464 193.628 364.217 192.875C364.97 192.122 365.401 191.106 365.42 190.041C365.32 187.959 363.638 185.886 361.383 186.013Z" fill="black"/>
<path d="M356.419 11.5773C355.428 11.5773 354.437 11.5773 353.445 11.6318C329.026 12.7204 306.034 23.4419 289.503 41.4483C272.972 59.4546 264.252 83.2781 265.25 107.701C265.459 112.875 273.524 112.902 273.306 107.701C271.424 61.4122 306.847 21.697 353.464 19.6876C354.455 19.6876 355.446 19.6421 356.437 19.6421C404.108 20.0968 441.732 60.2393 439.559 107.756C439.322 112.947 447.378 112.938 447.614 107.756C449.969 55.8477 408.299 12.0773 356.419 11.5773Z" fill="black"/>
<path d="M368.393 165.646C360.436 167.097 352.283 167.097 344.326 165.646C339.252 164.737 337.052 172.484 342.189 173.42C351.561 175.143 361.167 175.143 370.539 173.42C375.631 172.502 373.476 164.728 368.393 165.646Z" fill="black"/>
<path d="M356.419 30.9802C311.094 31.5349 278.007 72.6685 285.89 116.993C286.799 122.085 294.564 119.93 293.664 114.848C292.031 105.63 292.422 96.1675 294.81 87.1162C297.198 78.0648 301.527 69.6411 307.495 62.4291C313.463 55.2172 320.928 49.3895 329.373 45.3501C337.818 41.3107 347.04 39.1562 356.401 39.036C396.052 39.527 426.039 75.5234 419.192 114.657C418.283 119.73 426.066 121.931 426.966 116.803C434.731 72.5321 401.662 31.5349 356.419 30.9802Z" fill="black"/>
<path d="M356.418 50.3741C344.975 50.4935 333.865 54.2405 324.686 61.0758C324.55 61.1849 324.441 61.3031 324.313 61.4122C324.186 61.5213 324.013 61.594 323.868 61.7032C307.302 75.0598 299.928 97.3723 306.074 117.903C308.77 126.775 313.746 134.785 320.506 141.132C327.266 147.479 335.574 151.941 344.598 154.072C384.705 163.164 420.492 122.74 405.471 84.0611C397.552 63.758 378.049 50.7651 356.418 50.3741ZM393.697 127.141C375.03 156.027 330.469 152.599 316.03 121.558C307.211 102.6 313.384 80.7061 329.205 67.7041C337.073 61.8244 346.597 58.5816 356.418 58.439C390.915 59.03 412.736 97.6814 393.697 127.141Z" fill="black"/>
<path d="M356.419 69.7681C342.526 70.159 330.151 78.3967 325.296 91.5896C323.003 98.0072 322.733 104.973 324.521 111.549C326.309 118.125 330.07 123.995 335.297 128.368C358.664 147.653 394.315 126.722 388.996 96.9359C386.16 81.0971 372.203 70.2136 356.419 69.7681ZM356.419 127.959C349.79 127.902 343.448 125.244 338.759 120.557C334.071 115.87 331.41 109.53 331.351 102.9C331.351 88.9438 342.753 78.2148 356.419 77.8329C370.057 78.2148 381.477 88.9438 381.477 102.9C381.415 109.527 378.756 115.865 374.069 120.551C369.383 125.237 363.045 127.897 356.419 127.959Z" fill="black"/>
<path d="M357.619 89.2893C357.227 89.1885 356.822 89.1487 356.418 89.1711C356.018 89.1499 355.617 89.1866 355.227 89.2802C348.317 90.1895 342.689 95.5539 342.689 102.919C342.731 106.484 344.159 109.893 346.67 112.423C349.182 114.954 352.58 116.408 356.145 116.476C359.709 116.545 363.161 115.223 365.768 112.791C368.375 110.358 369.933 107.007 370.111 103.446C370.448 95.8813 364.692 90.2167 357.619 89.2893ZM356.418 108.565C349.081 108.565 349.145 97.6543 356.418 97.2269C363.692 97.6179 363.738 108.565 356.418 108.565Z" fill="black"/>
<path d="M478.328 71.2956L477.647 71.9776L476.965 71.2956C473.328 67.6587 467.581 73.3141 471.264 76.9874L474.792 80.5244C475.554 81.268 476.577 81.6842 477.642 81.6842C478.707 81.6842 479.73 81.268 480.492 80.5244L484.029 76.9874C487.703 73.3141 482.002 67.6133 478.328 71.2956Z" fill="black"/>
<path d="M480.492 -89.7656C479.728 -90.505 478.706 -90.9183 477.642 -90.9183C476.578 -90.9183 475.556 -90.505 474.792 -89.7656L461.935 -76.9L406.217 -21.1823C405.476 -20.4188 405.061 -19.3963 405.061 -18.3319C405.061 -17.2675 405.476 -16.245 406.217 -15.4814L474.792 53.0928C475.554 53.8364 476.577 54.2526 477.642 54.2526C478.707 54.2526 479.73 53.8364 480.492 53.0928L549.076 -15.4814C549.817 -16.245 550.232 -17.2675 550.232 -18.3319C550.232 -19.3963 549.817 -20.4188 549.076 -21.1823L480.492 -89.7656ZM414.764 -18.3364L467.636 -71.1991L477.637 -81.2007L540.52 -18.3364L477.647 44.546L414.764 -18.3364Z" fill="black"/>
<path d="M480.492 25.6613L521.644 -15.4814C522.015 -15.8312 522.311 -16.2542 522.511 -16.7236C522.711 -17.193 522.812 -17.6988 522.808 -18.2091C522.812 -18.2605 522.812 -18.3123 522.808 -18.3637C522.812 -18.4121 522.812 -18.4608 522.808 -18.5092C522.812 -19.0195 522.711 -19.5253 522.511 -19.9947C522.311 -20.4641 522.015 -20.887 521.644 -21.2369L480.492 -62.3887C479.727 -63.1281 478.705 -63.5414 477.642 -63.5414C476.578 -63.5414 475.556 -63.1281 474.791 -62.3887L433.648 -21.2369C432.907 -20.4733 432.492 -19.4508 432.492 -18.3864C432.492 -17.322 432.907 -16.2996 433.648 -15.536L474.791 25.6067C475.547 26.3577 476.565 26.7838 477.631 26.794C478.696 26.8042 479.723 26.3977 480.492 25.6613ZM442.195 -18.3364L477.655 -53.7964L513.115 -18.3364L477.655 17.1236L442.195 -18.3364Z" fill="black"/>
<path d="M1.72754 68.8133C1.689 68.1724 1.51512 67.5469 1.21736 66.978C0.919597 66.4091 0.504704 65.9098 0 65.5128L0 72.0502C0.542619 71.7054 0.986853 71.2262 1.28955 70.659C1.59226 70.0918 1.74314 69.456 1.72754 68.8133Z" fill="black"/>
<path d="M4.70072 44.4005C3.13685 44.6824 1.57297 44.8915 0 45.0643V53.1019C2.27308 52.8958 4.55525 52.5927 6.84651 52.1926C11.9382 51.2743 9.78333 43.4913 4.70072 44.4005Z" fill="black"/>
<path d="M55.5177 -6.57098C54.6084 -1.49747 62.3914 0.702858 63.2916 -4.4252C70.62 -46.2498 41.47 -85.2195 0 -89.802V-81.6916C35.9601 -77.2182 61.9368 -43.2766 55.5177 -6.57098Z" fill="black"/>
<path d="M41.7519 -37.1576C38.3306 -45.8651 32.6657 -53.5121 25.3325 -59.3217C17.9994 -65.1314 9.25932 -68.8967 0 -70.2354L0 -62.0523C30.1592 -56.5969 47.6619 -21.3915 30.0046 5.94002C26.6698 11.1058 22.2658 15.4962 17.0898 18.8152C11.9137 22.1341 6.0861 24.3043 0 25.1793L0 33.5443C31.3321 28.7617 54.3175 -4.80711 41.7519 -37.1576Z" fill="black"/>
<path d="M25.2948 -24.2827C22.9126 -37.6393 12.6201 -47.4317 0 -50.4958V-42.1673C5.12251 -40.618 9.61365 -37.4678 12.8144 -33.1788C16.0152 -28.8899 17.7571 -23.6879 17.7846 -18.3363C17.7391 -12.9764 15.9922 -7.76937 12.7957 -3.46656C9.59924 0.836246 5.11853 4.0124 0 5.60369L0 13.5867C15.8024 9.64977 28.6408 -5.60712 25.2948 -24.2827Z" fill="black"/>
</g>
<g clip-path="url(#clip1_36_2752)">
<path d="M899.462 242.704H782.781C777.589 242.704 777.58 234.648 782.781 234.648H899.462C904.654 234.648 904.663 242.704 899.462 242.704Z" fill="black"/>
<path d="M951.834 287.32V346.12C951.834 351.302 943.778 351.312 943.778 346.12V287.32C943.778 282.137 951.834 282.128 951.834 287.32Z" fill="black"/>
<path d="M738.474 287.32V346.12C738.474 351.302 730.409 351.312 730.409 346.12V287.32C730.409 282.128 738.474 282.119 738.474 287.32Z" fill="black"/>
<path d="M752.921 257.161C753.063 256.267 753.527 255.457 754.226 254.882C754.924 254.307 755.809 254.009 756.713 254.042H925.53C928.26 255.875 930.607 258.222 932.44 260.952V350.057C932.44 355.248 924.375 355.248 924.375 350.057V262.107H757.868V350.057C757.868 355.248 749.803 355.258 749.803 350.057V260.952C749.771 260.049 750.071 259.165 750.645 258.467C751.219 257.769 752.029 257.304 752.921 257.161Z" fill="black"/>
<path d="M773.233 273.436H909.009C910.075 273.45 911.094 273.88 911.848 274.634C912.602 275.388 913.032 276.406 913.046 277.473V357.631C913.046 362.822 904.981 362.831 904.981 357.631V281.501H777.261V357.631C777.261 362.822 769.206 362.831 769.206 357.631V277.473C769.22 276.408 769.648 275.391 770.4 274.637C771.152 273.883 772.169 273.452 773.233 273.436Z" fill="black"/>
<path d="M792.628 292.839H889.615C890.679 292.853 891.695 293.282 892.448 294.034C893.2 294.787 893.629 295.803 893.643 296.867V369.451C893.643 374.642 885.587 374.651 885.587 369.451V300.895H796.665V369.451C796.665 374.642 788.6 374.651 788.6 369.451V296.867C788.614 295.803 789.043 294.787 789.795 294.034C790.547 293.282 791.564 292.853 792.628 292.839Z" fill="black"/>
<path d="M712.615 314.097V302.74L717.925 308.077C721.462 311.587 716.252 317.024 712.615 314.097Z" fill="black"/>
<path d="M1222.92 303.304L1212.56 313.669C1208.93 317.306 1203.19 311.642 1206.86 307.969L1278.59 236.248L1288.95 225.883C1292.59 222.246 1298.32 227.911 1294.65 231.584L1222.92 303.304Z" fill="black"/>
<path d="M1367.88 242.022C1364.44 238.567 1360.98 235.127 1357.52 231.702C1353.89 228.065 1359.55 222.328 1363.22 226.001L1434.94 297.685C1436.64 299.367 1438.32 301.058 1440 302.74V314.097C1439.86 313.988 1439.73 313.87 1439.61 313.742L1367.88 242.022Z" fill="black"/>
<path d="M1326.05 227.62L1222.39 331.272L1207.64 346.038C1204 349.675 1198.26 344.01 1201.94 340.337L1306.22 236.039L1320.98 221.282C1321.62 220.592 1322.5 220.17 1323.44 220.1C1324.38 220.031 1325.31 220.32 1326.05 220.91C1326.78 220.32 1327.71 220.031 1328.65 220.1C1329.59 220.17 1330.47 220.592 1331.11 221.282L1435.37 325.535L1440 330.172V341.574L1340.17 241.704L1326.05 227.62Z" fill="black"/>
<path d="M1311.41 258.288L1323.23 246.468C1323.99 245.729 1325.01 245.316 1326.07 245.316C1327.14 245.316 1328.16 245.729 1328.92 246.468L1412.1 329.708L1424.05 341.655L1424.91 342.51C1425.65 343.274 1426.06 344.296 1426.06 345.361C1426.06 346.425 1425.65 347.447 1424.91 348.211L1421.59 351.53C1420.83 352.286 1419.81 352.71 1418.74 352.71C1417.67 352.71 1416.64 352.286 1415.89 351.53C1415.13 350.774 1414.71 349.748 1414.71 348.679C1414.71 347.61 1415.13 346.585 1415.89 345.829L1416.36 345.356L1335.15 264.143L1326.06 255.051L1244.69 336.418L1232.87 348.238C1229.23 351.875 1223.49 346.211 1227.17 342.537L1311.41 258.288Z" fill="black"/>
<path d="M1254.62 342.51L1323.2 273.927C1323.96 273.188 1324.98 272.775 1326.05 272.775C1327.11 272.775 1328.13 273.188 1328.89 273.927L1341.76 286.792L1397.48 342.51C1398.22 343.274 1398.63 344.296 1398.63 345.361C1398.63 346.425 1398.22 347.447 1397.48 348.211L1356.69 388.999H1345.29L1388.93 345.356L1336.07 292.493L1326.06 282.492L1263.17 345.356L1306.82 388.999H1295.43L1254.64 348.211C1253.9 347.451 1253.48 346.43 1253.47 345.366C1253.47 344.302 1253.88 343.277 1254.62 342.51Z" fill="black"/>
<path d="M1280.88 345.511C1280.88 345.459 1280.88 345.407 1280.88 345.356C1280.88 345.308 1280.88 345.259 1280.88 345.211C1280.88 344.7 1280.98 344.194 1281.18 343.725C1281.38 343.256 1281.68 342.833 1282.05 342.483L1323.2 301.331C1323.96 300.592 1324.98 300.179 1326.05 300.179C1327.11 300.179 1328.13 300.592 1328.89 301.331L1370.04 342.51C1370.79 343.274 1371.2 344.296 1371.2 345.361C1371.2 346.425 1370.79 347.447 1370.04 348.211L1329.26 388.999H1322.84L1282.05 348.211C1281.68 347.864 1281.39 347.446 1281.19 346.981C1280.99 346.517 1280.88 346.016 1280.88 345.511ZM1326.05 380.816L1361.51 345.356L1326.05 309.896L1290.59 345.356L1326.05 380.816Z" fill="black"/>
<path d="M899.462 0.248224H782.781C777.589 0.248224 777.58 -7.81665 782.781 -7.81665H899.462C904.654 -7.81665 904.663 0.248224 899.462 0.248224Z" fill="black"/>
<path d="M951.834 44.8642V103.655C951.834 108.838 943.778 108.847 943.778 103.655V44.8642C943.778 39.6725 951.834 39.6634 951.834 44.8642Z" fill="black"/>
<path d="M738.474 44.8551V103.655C738.474 108.847 730.409 108.856 730.409 103.655V44.8551C730.409 39.6725 738.474 39.6634 738.474 44.8551Z" fill="black"/>
<path d="M752.921 14.6958C753.065 13.8033 753.529 12.9939 754.227 12.4196C754.926 11.8454 755.809 11.5458 756.713 11.5772H925.53C928.26 13.4102 930.607 15.7573 932.44 18.4874V107.592C932.44 112.784 924.375 112.793 924.375 107.592V19.6421H757.868V107.592C757.868 112.784 749.803 112.793 749.803 107.592V18.4874C749.773 17.5844 750.074 16.7016 750.647 16.0038C751.221 15.3061 752.03 14.8412 752.921 14.6958Z" fill="black"/>
<path d="M836.125 186.15H845.826C851.009 186.15 851.018 194.215 845.826 194.215H836.125C830.933 194.215 830.933 186.15 836.125 186.15Z" fill="black"/>
<path d="M828.851 166.756H853.401C858.583 166.756 858.592 174.821 853.401 174.821H828.851C823.66 174.821 823.651 166.756 828.851 166.756Z" fill="black"/>
<path d="M773.233 30.9802H909.009C910.074 30.9943 911.091 31.4229 911.845 32.175C912.599 32.9271 913.029 33.9434 913.046 35.0081V115.175C913.046 120.358 904.981 120.367 904.981 115.175V39.036H777.261V115.175C777.261 120.358 769.206 120.367 769.206 115.175V35.0081C769.22 33.9443 769.649 32.9279 770.401 32.1756C771.153 31.4233 772.17 30.9943 773.233 30.9802Z" fill="black"/>
<path d="M817.031 147.362H865.22C870.403 147.362 870.412 155.418 865.22 155.418H817.031C811.84 155.418 811.83 147.362 817.031 147.362Z" fill="black"/>
<path d="M792.628 50.3741H889.615C890.679 50.3883 891.695 50.8172 892.448 51.5695C893.2 52.3218 893.629 53.3382 893.643 54.402V126.995C893.643 132.178 885.587 132.187 885.587 126.995V58.439H796.665V126.995C796.665 132.178 788.6 132.187 788.6 126.995V54.402C788.616 53.3389 789.046 52.3239 789.798 51.572C790.549 50.8202 791.564 50.3906 792.628 50.3741Z" fill="black"/>
<path d="M809.203 70.9409L809.285 70.8681C809.639 70.5072 810.065 70.2232 810.534 70.0339C811.003 69.8446 811.506 69.7541 812.012 69.768H870.203C871.268 69.7845 872.284 70.2154 873.036 70.9692C873.788 71.7229 874.217 72.7402 874.231 73.805V131.996C874.215 133.059 873.785 134.074 873.033 134.826C872.281 135.578 871.266 136.007 870.203 136.024H812.012C810.948 136.01 809.93 135.581 809.176 134.829C808.423 134.077 807.992 133.06 807.975 131.996V73.805C807.962 73.3008 808.051 72.7993 808.237 72.3305C808.423 71.8617 808.702 71.4354 809.057 71.0773L809.203 70.9409ZM816.058 127.959H866.184V77.8329H816.058V127.959Z" fill="black"/>
<path d="M850.818 116.63H831.425C830.359 116.616 829.342 116.186 828.589 115.431C827.836 114.677 827.408 113.658 827.397 112.593V93.199C827.382 92.6954 827.469 92.194 827.654 91.7252C827.838 91.2564 828.116 90.8298 828.47 90.4713L828.606 90.3349L828.679 90.2621C829.036 89.905 829.462 89.6241 829.931 89.4366C830.399 89.249 830.902 89.1587 831.406 89.171H850.818C851.883 89.1851 852.901 89.6137 853.654 90.3658C854.408 91.1179 854.839 92.1343 854.855 93.199V112.593C854.841 113.659 854.411 114.678 853.657 115.432C852.903 116.186 851.885 116.616 850.818 116.63ZM846.791 97.2268H835.452V108.565H846.791V97.2268Z" fill="black"/>
<path d="M821.641 180.485C821.714 180.658 821.75 180.822 821.805 180.994C821.894 181.14 821.973 181.292 822.041 181.449C827.741 195.218 830.652 209.981 830.606 224.883C830.606 230.075 822.523 230.084 822.541 224.883C822.539 210.909 819.789 197.072 814.449 184.158C806.435 165.687 793.237 149.935 776.454 138.81C759.671 127.685 740.023 121.664 719.889 121.476C717.443 121.476 715.024 121.603 712.615 121.794V113.72C715.024 113.538 717.452 113.429 719.889 113.411C763.923 113.784 804.093 139.997 821.641 180.485Z" fill="black"/>
<path d="M718.407 307.368C720.48 307.368 722.544 307.368 724.617 307.259C725.684 307.264 726.706 307.69 727.46 308.444C728.214 309.199 728.64 310.22 728.645 311.287C728.633 312.355 728.206 313.377 727.455 314.135C726.703 314.894 725.685 315.33 724.617 315.351C722.544 315.46 720.48 315.497 718.407 315.47C717.243 315.47 716.079 315.406 714.925 315.342C714.098 315.289 713.301 315.016 712.615 314.551V308.014C713.271 307.498 714.091 307.237 714.925 307.277C716.079 307.305 717.243 307.35 718.407 307.368Z" fill="black"/>
<path d="M722.862 132.86C747.281 133.948 770.274 144.67 786.805 162.676C803.335 180.682 812.056 204.506 811.058 228.929C810.848 234.103 802.793 234.13 803.002 228.929C804.884 182.64 769.46 142.925 722.844 140.925C721.856 140.888 720.865 140.87 719.871 140.87C717.425 140.87 714.997 141.034 712.597 141.261V133.169C715.022 132.951 717.446 132.832 719.871 132.814C720.88 132.814 721.871 132.832 722.862 132.86Z" fill="black"/>
<path d="M731.982 286.856C737.055 285.947 739.256 293.703 734.119 294.63C727.027 295.92 719.791 296.226 712.615 295.539V287.492C719.067 288.221 725.591 288.007 731.982 286.856Z" fill="black"/>
<path d="M790.418 238.221C789.509 243.322 781.744 241.158 782.644 236.075C784.276 226.858 783.883 217.397 781.494 208.347C779.105 199.296 774.777 190.874 768.809 183.663C762.841 176.452 755.376 170.625 746.932 166.586C738.488 162.548 729.267 160.393 719.907 160.273C717.475 160.298 715.047 160.462 712.633 160.764V152.663C715.025 152.399 717.443 152.235 719.907 152.208C765.214 152.763 798.301 193.896 790.418 238.221Z" fill="black"/>
<path d="M751.621 182.304C751.758 182.413 751.867 182.531 751.994 182.649C752.149 182.736 752.298 182.834 752.44 182.94C769.006 196.288 776.38 218.6 770.233 239.13C767.545 248.011 762.572 256.031 755.811 262.386C749.05 268.741 740.739 273.21 731.709 275.345C725.446 276.781 718.968 277.021 712.615 276.054V267.68C731.218 270.517 751.412 261.889 760.277 242.849C769.142 223.81 762.923 201.998 747.103 188.986C739.24 183.09 729.716 179.828 719.889 179.667C717.449 179.71 715.017 179.95 712.615 180.385V172.202C715.024 171.84 717.454 171.633 719.889 171.584C731.333 171.717 742.441 175.47 751.621 182.304Z" fill="black"/>
<path d="M751.012 212.826C753.304 219.244 753.575 226.21 751.787 232.786C749.998 239.362 746.237 245.232 741.01 249.605C737.132 252.861 732.532 255.145 727.593 256.266C722.655 257.387 717.52 257.314 712.615 256.051V248.068C714.97 248.804 717.422 249.184 719.889 249.196C726.519 249.136 732.861 246.476 737.549 241.788C742.237 237.1 744.897 230.758 744.957 224.128C744.957 210.171 733.555 199.443 719.889 199.061C717.419 199.132 714.972 199.545 712.615 200.288V191.969C714.999 191.39 717.437 191.067 719.889 191.005C733.782 191.387 746.157 199.624 751.012 212.826Z" fill="black"/>
<path d="M719.889 210.399C720.29 210.375 720.692 210.415 721.08 210.517C727.99 211.426 733.618 216.782 733.618 224.156C733.573 227.783 732.112 231.249 729.547 233.814C726.982 236.379 723.516 237.84 719.889 237.885C717.308 237.885 714.782 237.14 712.615 235.739V212.672C714.464 211.531 716.534 210.797 718.689 210.517C719.08 210.416 719.485 210.376 719.889 210.399ZM719.889 229.793C727.226 229.793 727.163 218.882 719.889 218.464C712.615 218.855 712.569 229.793 719.889 229.793Z" fill="black"/>
<path d="M712.615 71.6774V60.2756L717.925 65.5855C721.462 69.1315 716.252 74.5597 712.615 71.6774Z" fill="black"/>
<path d="M722.744 97.8361C726.381 101.473 720.716 107.21 717.043 103.537L712.615 99.109V87.7073L722.744 97.8361Z" fill="black"/>
<path d="M1263.15 121.476H1146.47C1141.28 121.476 1141.27 113.411 1146.47 113.411H1263.15C1268.35 113.411 1268.36 121.476 1263.15 121.476Z" fill="black"/>
<path d="M1307.47 224.883V166.092C1307.47 160.9 1315.53 160.891 1315.53 166.092V224.883C1315.53 230.075 1307.47 230.084 1307.47 224.883Z" fill="black"/>
<path d="M1094.1 224.883V166.092C1094.1 160.9 1102.17 160.891 1102.17 166.092V224.883C1102.17 230.075 1094.1 230.084 1094.1 224.883Z" fill="black"/>
<path d="M1288.07 228.829V140.87H1121.56V228.829C1121.56 234.012 1113.49 234.021 1113.49 228.829V139.724C1115.32 136.994 1117.67 134.65 1120.41 132.823H1289.22C1290.12 132.79 1291.01 133.087 1291.71 133.66C1292.41 134.233 1292.87 135.041 1293.01 135.933C1293.91 136.074 1294.72 136.538 1295.29 137.237C1295.87 137.936 1296.17 138.82 1296.13 139.724V228.829C1296.13 234.012 1288.07 234.021 1288.07 228.829Z" fill="black"/>
<path d="M1199.82 307.386H1209.52C1214.7 307.386 1214.71 315.442 1209.52 315.442H1199.82C1194.63 315.442 1194.62 307.386 1199.82 307.386Z" fill="black"/>
<path d="M1192.54 287.984H1217.09C1222.28 287.984 1222.28 296.048 1217.09 296.048H1192.54C1187.35 296.048 1187.34 287.984 1192.54 287.984Z" fill="black"/>
<path d="M1140.95 160.273V236.403C1140.95 241.594 1132.9 241.604 1132.9 236.403V156.236C1132.91 155.173 1133.34 154.158 1134.1 153.406C1134.85 152.654 1135.86 152.224 1136.93 152.208H1272.7C1273.77 152.222 1274.78 152.651 1275.54 153.403C1276.29 154.155 1276.72 155.171 1276.74 156.236V236.403C1276.74 241.594 1268.67 241.604 1268.67 236.403V160.273H1140.95Z" fill="black"/>
<path d="M1180.72 268.59H1228.91C1234.1 268.59 1234.1 276.654 1228.91 276.654H1180.72C1175.53 276.654 1175.52 268.59 1180.72 268.59Z" fill="black"/>
<path d="M1160.36 248.223C1160.36 253.415 1152.29 253.424 1152.29 248.223V175.639C1152.31 174.574 1152.73 173.557 1153.49 172.803C1154.24 172.049 1155.26 171.619 1156.32 171.602H1253.31C1254.37 171.616 1255.39 172.046 1256.14 172.801C1256.9 173.555 1257.32 174.574 1257.34 175.639V248.223C1257.34 253.415 1249.28 253.424 1249.28 248.223V179.667H1160.36V248.223Z" fill="black"/>
<path d="M1171.69 253.224V195.033C1171.67 194.529 1171.76 194.027 1171.95 193.558C1172.13 193.089 1172.41 192.663 1172.77 192.305L1172.9 192.169L1172.98 192.096C1173.33 191.738 1173.76 191.457 1174.23 191.27C1174.7 191.082 1175.2 190.992 1175.7 191.005H1233.9C1234.96 191.021 1235.97 191.451 1236.73 192.203C1237.48 192.955 1237.91 193.97 1237.92 195.033V253.224C1237.91 254.287 1237.48 255.304 1236.73 256.056C1235.98 256.808 1234.96 257.237 1233.9 257.251H1175.7C1174.64 257.233 1173.63 256.802 1172.88 256.05C1172.13 255.299 1171.7 254.285 1171.69 253.224ZM1179.75 249.196H1229.88V199.061H1179.75V249.196Z" fill="black"/>
<path d="M1214.51 237.858H1195.12C1194.05 237.844 1193.04 237.415 1192.28 236.662C1191.53 235.91 1191.1 234.894 1191.09 233.83V214.427C1191.07 213.923 1191.16 213.421 1191.34 212.952C1191.53 212.483 1191.81 212.056 1192.16 211.699C1192.21 211.653 1192.25 211.604 1192.29 211.554L1192.37 211.481C1192.73 211.124 1193.15 210.843 1193.62 210.655C1194.09 210.468 1194.59 210.377 1195.1 210.39H1214.51C1215.58 210.404 1216.59 210.832 1217.35 211.585C1218.1 212.337 1218.53 213.353 1218.55 214.418V233.821C1218.53 234.887 1218.1 235.906 1217.35 236.66C1216.6 237.414 1215.58 237.844 1214.51 237.858ZM1210.48 218.464H1199.14V229.793H1210.48V218.464Z" fill="black"/>
<path d="M1083.58 234.648C1127.62 235.012 1167.79 261.234 1185.33 301.722C1185.41 301.886 1185.44 302.058 1185.5 302.222C1185.58 302.369 1185.66 302.521 1185.73 302.677C1191.43 316.447 1194.34 331.209 1194.3 346.111C1194.3 351.302 1186.22 351.311 1186.23 346.111C1186.23 332.14 1183.48 318.306 1178.14 305.395C1170.13 286.923 1156.93 271.169 1140.15 260.043C1123.36 248.916 1103.72 242.893 1083.58 242.704C1027.21 243.149 980.738 289.538 980.938 346.12C980.938 351.302 972.892 351.311 972.873 346.12C972.655 285.156 1022.84 235.121 1083.58 234.648Z" fill="black"/>
<path d="M1083.58 254.042C1084.57 254.042 1085.56 254.042 1086.55 254.042C1110.98 255.13 1133.97 265.853 1150.5 283.862C1167.03 301.87 1175.75 325.696 1174.75 350.12C1174.54 355.285 1166.48 355.312 1166.69 350.12C1168.58 303.831 1133.15 264.116 1086.54 262.107C1085.55 262.107 1084.55 262.107 1083.56 262.107C1035.89 262.561 998.268 302.704 1000.44 350.22C1000.68 355.403 992.622 355.394 992.386 350.22C990.031 298.312 1031.7 254.533 1083.58 254.042Z" fill="black"/>
<path d="M1083.58 273.436C1128.91 273.99 1161.99 315.133 1154.11 359.449C1153.2 364.55 1145.44 362.386 1146.34 357.303C1153.31 318.115 1123.32 281.992 1083.6 281.501C1043.95 281.983 1013.96 317.979 1020.81 357.121C1021.72 362.195 1013.93 364.395 1013.03 359.267C1005.27 314.997 1038.34 273.99 1083.58 273.436Z" fill="black"/>
<path d="M1034.56 326.526C1042.45 306.223 1061.95 293.212 1083.58 292.884C1095.02 292.988 1106.13 296.716 1115.31 303.531C1115.44 303.636 1115.57 303.748 1115.69 303.868C1115.84 303.955 1115.99 304.052 1116.13 304.159C1132.7 317.506 1140.07 339.828 1133.93 360.349C1130.37 372.047 1122.88 382.162 1112.74 388.99H1089.48C1103.76 387.081 1117.19 378.598 1123.97 364.023C1132.79 345.065 1126.62 323.171 1110.79 310.16C1102.93 304.284 1093.4 301.041 1083.58 300.895C1049.09 301.495 1027.26 340.137 1046.3 369.605C1049.72 374.907 1054.26 379.392 1059.6 382.744C1064.94 386.095 1070.96 388.231 1077.22 388.999H1055.21C1035.87 376.097 1025.06 350.966 1034.56 326.526Z" fill="black"/>
<path d="M859.229 182.076C855.786 185.531 852.333 188.983 848.872 192.432C845.235 196.069 839.498 190.414 843.172 186.731L914.901 115.011L925.257 104.655C928.894 101.018 934.631 106.683 930.958 110.356L859.229 182.076Z" fill="black"/>
<path d="M1075.92 192.514L1004.19 120.776L993.831 110.42C990.194 106.783 995.859 101.037 999.532 104.719L1071.25 176.439L1081.62 186.795C1085.29 190.487 1079.59 196.188 1075.92 192.514Z" fill="black"/>
<path d="M1080.74 224.765L976.474 120.503L962.354 106.392L858.701 210.044L843.944 224.801C840.307 228.438 834.57 222.783 838.243 219.1L942.532 114.802L957.289 100.045C960.648 99.5607 964.059 99.5607 967.418 100.045L1071.68 204.307L1086.44 219.064C1090.11 222.737 1084.41 228.447 1080.74 224.765Z" fill="black"/>
<path d="M947.715 137.06L959.535 125.24C960.299 124.499 961.321 124.084 962.385 124.084C963.45 124.084 964.472 124.499 965.236 125.24L1048.44 208.453L1060.39 220.391L1061.24 221.255C1061.98 222.017 1062.4 223.038 1062.4 224.101C1062.4 225.164 1061.98 226.185 1061.24 226.947L1057.92 230.275C1057.55 230.649 1057.1 230.946 1056.62 231.148C1056.13 231.351 1055.6 231.455 1055.07 231.455C1054.54 231.455 1054.02 231.351 1053.53 231.148C1053.04 230.946 1052.6 230.649 1052.22 230.275C1051.85 229.9 1051.55 229.456 1051.35 228.967C1051.15 228.478 1051.04 227.954 1051.04 227.424C1051.04 226.895 1051.15 226.371 1051.35 225.882C1051.55 225.392 1051.85 224.948 1052.22 224.574C1052.38 224.41 1052.53 224.256 1052.69 224.101L971.473 142.888L962.381 133.796L881.014 215.163L869.194 226.983C865.557 230.62 859.82 224.965 863.493 221.291L947.715 137.06Z" fill="black"/>
<path d="M959.508 152.699C960.272 151.958 961.294 151.543 962.358 151.543C963.423 151.543 964.445 151.958 965.209 152.699L978.065 165.556L1033.78 221.282C1034.52 222.044 1034.94 223.065 1034.94 224.128C1034.94 225.191 1034.52 226.212 1033.78 226.974L965.209 295.557C964.445 296.299 963.423 296.714 962.358 296.714C961.294 296.714 960.272 296.299 959.508 295.557C936.644 272.699 913.783 249.838 890.925 226.974C890.184 226.212 889.769 225.191 889.769 224.128C889.769 223.065 890.184 222.044 890.925 221.282L959.508 152.699ZM962.354 287.002L1025.24 224.128L972.364 171.256L962.363 161.255L899.49 224.137L962.354 287.002Z" fill="black"/>
<path d="M1006.35 221.282C1007.09 222.044 1007.51 223.065 1007.51 224.128C1007.51 225.191 1007.09 226.212 1006.35 226.974L965.209 268.126C964.445 268.867 963.423 269.282 962.358 269.282C961.294 269.282 960.271 268.867 959.508 268.126L918.356 226.974C917.981 226.627 917.684 226.204 917.483 225.734C917.283 225.264 917.184 224.757 917.192 224.246C917.188 224.192 917.188 224.137 917.192 224.083C917.188 224.037 917.188 223.992 917.192 223.946C917.188 223.436 917.289 222.93 917.489 222.461C917.689 221.991 917.984 221.569 918.356 221.219L959.508 180.067C960.271 179.325 961.294 178.911 962.358 178.911C963.423 178.911 964.445 179.325 965.209 180.067L1006.35 221.282ZM926.912 224.128L962.372 259.588L997.832 224.128L962.372 188.668L926.912 224.128Z" fill="black"/>
<path d="M978.92 226.974L965.208 240.694C964.445 241.436 963.422 241.851 962.358 241.851C961.294 241.851 960.271 241.436 959.508 240.694L945.787 226.974C945.413 226.627 945.115 226.204 944.915 225.734C944.714 225.264 944.615 224.757 944.623 224.246C944.619 224.192 944.619 224.137 944.623 224.083C944.619 224.037 944.619 223.992 944.623 223.946C944.619 223.436 944.72 222.93 944.92 222.461C945.121 221.991 945.416 221.568 945.787 221.219L959.508 207.498C960.271 206.757 961.294 206.342 962.358 206.342C963.422 206.342 964.445 206.757 965.208 207.498L978.92 221.219C979.68 221.983 980.106 223.018 980.106 224.096C980.106 225.175 979.68 226.209 978.92 226.974ZM962.353 216.109L954.343 224.128L962.353 232.148L970.373 224.128L962.353 216.109Z" fill="black"/>
<path d="M1344.63 224.883C1344.63 230.075 1336.58 230.084 1336.57 224.883C1336.35 166.383 1382.57 117.939 1440 113.72V121.794C1386.94 125.968 1344.44 170.784 1344.63 224.883Z" fill="black"/>
<path d="M1438.27 311.278C1438.31 310.637 1438.48 310.012 1438.78 309.443C1439.08 308.874 1439.5 308.374 1440 307.978V314.515C1439.46 314.17 1439.01 313.691 1438.71 313.124C1438.41 312.557 1438.26 311.921 1438.27 311.278Z" fill="black"/>
<path d="M1364.15 228.974C1364.39 234.157 1356.33 234.148 1356.1 228.974C1353.83 179.512 1391.56 137.442 1440 133.151V141.243C1395.84 145.489 1362.1 183.913 1364.15 228.974Z" fill="black"/>
<path d="M1435.3 286.874C1436.86 287.156 1438.43 287.374 1440 287.538V295.585C1437.73 295.373 1435.44 295.07 1433.15 294.676C1428.06 293.73 1430.22 285.956 1435.3 286.874Z" fill="black"/>
<path d="M1384.48 235.885C1385.39 240.967 1377.61 243.159 1376.71 238.03C1369.38 196.206 1398.53 157.245 1440 152.663V160.782C1404.04 165.246 1378.06 199.188 1384.48 235.885Z" fill="black"/>
<path d="M1398.25 205.334C1401.67 196.621 1407.33 188.968 1414.66 183.152C1422 177.335 1430.74 173.564 1440 172.22V180.403C1409.84 185.859 1392.34 221.055 1410 248.396C1413.33 253.562 1417.73 257.953 1422.91 261.272C1428.09 264.591 1433.91 266.761 1440 267.635V276.009C1408.67 271.217 1385.68 237.648 1398.25 205.334Z" fill="black"/>
<path d="M1414.71 218.182C1417.09 204.816 1427.38 194.987 1440 191.969V200.288C1434.88 201.839 1430.39 204.991 1427.18 209.282C1423.98 213.572 1422.24 218.775 1422.22 224.128C1422.26 229.488 1424.01 234.693 1427.21 238.995C1430.4 243.298 1434.88 246.475 1440 248.068V256.051C1424.2 252.114 1411.36 236.894 1414.71 218.182Z" fill="black"/>
<path d="M1433.57 224.656C1433.46 222.264 1434 219.887 1435.13 217.777C1436.27 215.668 1437.95 213.903 1440 212.672V235.712C1438.13 234.513 1436.57 232.884 1435.45 230.962C1434.33 229.039 1433.69 226.877 1433.57 224.656Z" fill="black"/>
<path d="M1222.92 60.8485L1212.56 71.2047C1208.93 74.8416 1203.19 69.1771 1206.86 65.5038L1278.59 -6.21636L1288.95 -16.5725C1292.59 -20.2094 1298.32 -14.554 1294.65 -10.8807L1222.92 60.8485Z" fill="black"/>
<path d="M1367.88 -0.433617L1357.52 -10.7988C1353.89 -14.4358 1359.55 -20.173 1363.22 -16.4997L1434.94 55.2295L1440 60.2757V71.6775C1439.86 71.5724 1439.73 71.4569 1439.61 71.332L1367.88 -0.433617Z" fill="black"/>
<path d="M1326.05 -14.845L1222.39 88.8073L1207.66 103.5C1204.03 107.137 1198.29 101.473 1201.96 97.7996C1236.72 63.0731 1271.47 28.3313 1306.22 -6.42553L1320.98 -21.1824C1321.62 -21.871 1322.5 -22.292 1323.44 -22.3611C1324.38 -22.4302 1325.31 -22.1424 1326.05 -21.5551C1326.78 -22.1424 1327.71 -22.4302 1328.65 -22.3611C1329.59 -22.292 1330.47 -21.871 1331.11 -21.1824L1435.37 83.0792L1440 87.7071V99.1089L1340.17 -0.724659L1326.05 -14.845Z" fill="black"/>
<path d="M1311.41 15.8324L1323.23 4.01244C1323.99 3.26936 1325.01 2.85339 1326.07 2.85339C1327.14 2.85339 1328.16 3.26936 1328.92 4.01244L1412.1 87.2434L1424.05 99.1908L1424.91 100.045C1425.65 100.809 1426.06 101.831 1426.06 102.896C1426.06 103.96 1425.65 104.983 1424.91 105.746L1421.59 109.065C1420.83 109.821 1419.81 110.246 1418.74 110.246C1417.67 110.246 1416.64 109.821 1415.89 109.065C1415.13 108.309 1414.71 107.284 1414.71 106.215C1414.71 105.145 1415.13 104.12 1415.89 103.364L1416.35 102.9L1335.14 21.6697C1332.11 18.6389 1329.08 15.6082 1326.05 12.5774L1244.68 93.9445L1232.86 105.764C1229.22 109.401 1223.48 103.737 1227.16 100.064L1311.41 15.8324Z" fill="black"/>
<path d="M1325.36 192.523L1326.05 193.205L1326.73 192.523C1330.36 188.886 1336.1 194.551 1332.43 198.224L1328.89 201.761C1328.13 202.5 1327.11 202.913 1326.05 202.913C1324.98 202.913 1323.96 202.5 1323.2 201.761L1319.66 198.224C1315.99 194.551 1321.68 188.85 1325.36 192.523Z" fill="black"/>
<path d="M1323.2 31.4712C1323.96 30.7281 1324.98 30.3121 1326.05 30.3121C1327.11 30.3121 1328.13 30.7281 1328.89 31.4712L1341.76 44.3277L1397.48 100.045C1398.22 100.809 1398.63 101.831 1398.63 102.896C1398.63 103.96 1398.22 104.983 1397.48 105.746L1328.89 174.33C1328.13 175.068 1327.11 175.481 1326.05 175.481C1324.98 175.481 1323.96 175.068 1323.2 174.33L1254.62 105.746C1253.88 104.983 1253.46 103.96 1253.46 102.896C1253.46 101.831 1253.88 100.809 1254.62 100.045L1323.2 31.4712ZM1326.05 165.774L1388.92 102.9L1336.06 50.0286L1326.05 40.0271L1263.18 102.909L1326.05 165.774Z" fill="black"/>
<path d="M1370.04 100.046C1370.79 100.809 1371.2 101.832 1371.2 102.896C1371.2 103.96 1370.79 104.983 1370.04 105.746L1328.89 146.898C1328.13 147.637 1327.11 148.05 1326.05 148.05C1324.98 148.05 1323.96 147.637 1323.2 146.898L1282.05 105.746C1281.68 105.397 1281.38 104.974 1281.18 104.505C1280.98 104.035 1280.88 103.529 1280.88 103.019C1280.88 102.964 1280.88 102.909 1280.88 102.855C1280.88 102.807 1280.88 102.758 1280.88 102.71C1280.88 102.199 1280.98 101.694 1281.18 101.225C1281.38 100.756 1281.68 100.333 1282.05 99.9819L1323.2 58.9483C1323.96 58.2052 1324.98 57.7892 1326.05 57.7892C1327.11 57.7892 1328.13 58.2052 1328.89 58.9483L1370.04 100.046ZM1290.6 102.9L1326.06 138.361L1361.52 102.9L1326.06 67.4405L1290.6 102.9Z" fill="black"/>
<path d="M1342.61 105.746L1328.89 119.467C1328.13 120.205 1327.11 120.619 1326.05 120.619C1324.98 120.619 1323.96 120.205 1323.2 119.467L1309.48 105.746C1309.11 105.397 1308.81 104.974 1308.61 104.505C1308.41 104.035 1308.31 103.529 1308.32 103.019C1308.31 102.964 1308.31 102.909 1308.32 102.855C1308.31 102.807 1308.31 102.758 1308.32 102.71C1308.31 102.199 1308.41 101.694 1308.62 101.225C1308.82 100.756 1309.11 100.333 1309.48 99.9818L1323.2 86.2706C1323.96 85.5275 1324.98 85.1116 1326.05 85.1116C1327.11 85.1116 1328.13 85.5275 1328.89 86.2706L1342.61 100.045C1343.35 100.809 1343.77 101.832 1343.77 102.896C1343.77 103.96 1343.35 104.983 1342.61 105.746ZM1326.05 94.8356L1318.03 102.855L1326.05 110.865L1334.07 102.855L1326.05 94.8356Z" fill="black"/>
<path d="M718.407 64.9128C720.48 64.9128 722.544 64.9128 724.617 64.7946C725.685 64.8018 726.706 65.2297 727.461 65.9855C728.215 66.7413 728.64 67.764 728.645 68.8316C728.622 69.8926 728.19 70.9037 727.44 71.6541C726.689 72.4045 725.678 72.8363 724.617 72.8595C722.544 72.9595 720.48 73.005 718.407 72.9686C717.243 72.9686 716.079 72.905 714.925 72.8413C714.097 72.7931 713.299 72.5196 712.615 72.0503V65.5129C713.271 64.9968 714.092 64.7382 714.925 64.7856C716.079 64.8492 717.243 64.8856 718.407 64.9128Z" fill="black"/>
<path d="M731.982 44.4005C737.055 43.4913 739.256 51.247 734.119 52.1744C727.027 53.469 719.791 53.7749 712.615 53.0837V45.0461C719.068 45.7676 725.591 45.5502 731.982 44.4005Z" fill="black"/>
<path d="M790.418 -4.24332C789.509 0.85746 781.744 -1.30652 782.644 -6.38003C784.277 -15.5977 783.886 -25.0602 781.498 -34.1116C779.109 -43.163 774.781 -51.5866 768.813 -58.7986C762.845 -66.0106 755.379 -71.8383 746.935 -75.8777C738.49 -79.9171 729.267 -82.0716 719.907 -82.1917C717.475 -82.1637 715.046 -81.9967 712.633 -81.6916V-89.802C715.025 -90.0657 717.443 -90.2202 719.907 -90.2566C765.214 -89.6929 798.301 -48.5592 790.418 -4.24332Z" fill="black"/>
<path d="M751.621 -60.161C751.758 -60.061 751.867 -59.9337 751.994 -59.8246C752.149 -59.7373 752.298 -59.6401 752.44 -59.5336C769.006 -46.1861 776.38 -23.8645 770.233 -3.34316C767.541 5.53185 762.566 13.5445 755.805 19.8934C749.045 26.2423 740.736 30.705 731.709 32.8352C725.446 34.2706 718.968 34.5112 712.615 33.5443V25.1794C731.218 28.0071 751.412 19.3785 760.277 0.339241C769.142 -18.7001 762.923 -40.5125 747.103 -53.5145C739.237 -59.4013 729.712 -62.6506 719.889 -62.7978C717.449 -62.7545 715.017 -62.5143 712.615 -62.0795V-70.2625C719.462 -71.3445 726.458 -71.0061 733.169 -69.2682C739.879 -67.5304 746.16 -64.4304 751.621 -60.161Z" fill="black"/>
<path d="M751.012 -29.6382C753.306 -23.2207 753.577 -16.2542 751.788 -9.67793C750 -3.10165 746.238 2.76818 741.01 7.14021C737.135 10.4026 732.535 12.6901 727.595 13.8115C722.656 14.933 717.519 14.8559 712.615 13.5866V5.6036C714.97 6.33949 717.422 6.71951 719.889 6.73107C726.52 6.67409 732.863 4.01475 737.551 -0.674026C742.24 -5.3628 744.899 -11.7058 744.956 -18.3364C744.956 -32.284 733.555 -43.013 719.889 -43.3948C717.418 -43.3321 714.969 -42.9188 712.615 -42.1674V-50.4959C715 -51.0659 717.438 -51.3888 719.889 -51.4597C733.782 -51.0687 746.157 -42.8311 751.012 -29.6382Z" fill="black"/>
<path d="M1199.82 64.9219H1209.52C1214.7 64.9219 1214.71 72.9867 1209.52 72.9867H1199.82C1194.63 72.9867 1194.62 64.9219 1199.82 64.9219Z" fill="black"/>
<path d="M1192.54 45.528H1217.09C1222.28 45.528 1222.28 53.5838 1217.09 53.5838H1192.54C1187.35 53.5838 1187.34 45.528 1192.54 45.528Z" fill="black"/>
<path d="M1180.72 26.125H1228.91C1234.1 26.125 1234.1 34.1899 1228.91 34.1899H1180.72C1175.53 34.1899 1175.52 26.125 1180.72 26.125Z" fill="black"/>
<path d="M1160.36 -62.7978V5.75818C1160.36 10.9499 1152.29 10.959 1152.29 5.75818V-66.8257C1152.31 -67.8896 1152.74 -68.9059 1153.49 -69.6583C1154.24 -70.4106 1155.26 -70.8395 1156.32 -70.8536H1253.31C1254.37 -70.8395 1255.39 -70.4106 1256.14 -69.6583C1256.89 -68.9059 1257.32 -67.8896 1257.34 -66.8257V5.75818C1257.34 10.9499 1249.28 10.959 1249.28 5.75818V-62.7978H1160.36Z" fill="black"/>
<path d="M1171.69 10.759V-47.4318C1171.67 -47.9362 1171.76 -48.4386 1171.94 -48.9077C1172.13 -49.3769 1172.41 -49.8029 1172.77 -50.1595C1172.81 -50.2102 1172.85 -50.2587 1172.9 -50.3049L1172.98 -50.3777C1173.33 -50.7352 1173.76 -51.0164 1174.23 -51.204C1174.7 -51.3916 1175.2 -51.4817 1175.7 -51.4688H1233.9C1234.96 -51.4523 1235.97 -51.0227 1236.73 -50.2709C1237.48 -49.519 1237.91 -48.504 1237.92 -47.4409V10.7499C1237.91 11.8146 1237.48 12.8319 1236.73 13.5857C1235.98 14.3395 1234.96 14.7704 1233.9 14.7869H1175.7C1174.64 14.7682 1173.63 14.3375 1172.88 13.5859C1172.13 12.8343 1171.7 11.8206 1171.69 10.759ZM1179.75 6.73113H1229.88V-43.3948H1179.75V6.73113Z" fill="black"/>
<path d="M1083.58 -7.81665C1127.62 -7.45296 1167.79 18.7693 1185.33 59.2573C1185.41 59.4301 1185.44 59.5938 1185.5 59.7574C1185.59 59.9062 1185.67 60.0612 1185.73 60.2211C1191.43 73.9911 1194.34 88.7535 1194.3 103.655C1194.3 108.838 1186.22 108.847 1186.23 103.655C1186.23 89.6815 1183.48 75.8449 1178.14 62.9306C1170.13 44.4583 1156.93 28.7056 1140.15 17.5804C1123.36 6.45515 1103.72 0.434715 1083.58 0.248224C1027.21 0.684655 980.738 47.0827 980.938 103.655C980.938 108.847 972.892 108.847 972.873 103.655C972.655 42.7002 1022.84 -7.34385 1083.58 -7.81665Z" fill="black"/>
<path d="M1078.62 186.013C1079.77 186.077 1080.94 186.122 1082.1 186.141C1084.17 186.141 1086.24 186.141 1088.31 186.031C1089.38 186.036 1090.4 186.462 1091.15 187.216C1091.91 187.971 1092.33 188.993 1092.34 190.059C1092.31 191.12 1091.88 192.131 1091.13 192.882C1090.38 193.632 1089.37 194.064 1088.31 194.087C1086.24 194.196 1084.17 194.233 1082.1 194.205C1080.94 194.205 1079.77 194.142 1078.62 194.078C1077.55 194.059 1076.54 193.628 1075.78 192.875C1075.03 192.122 1074.6 191.106 1074.58 190.041C1074.68 187.959 1076.36 185.886 1078.62 186.013Z" fill="black"/>
<path d="M1083.58 11.5773C1084.57 11.5773 1085.56 11.5773 1086.55 11.6318C1110.97 12.7204 1133.97 23.4419 1150.5 41.4483C1167.03 59.4546 1175.75 83.2781 1174.75 107.701C1174.54 112.875 1166.48 112.902 1166.69 107.701C1168.58 61.4122 1133.15 21.697 1086.54 19.6876C1085.55 19.6876 1084.55 19.6421 1083.56 19.6421C1035.89 20.0968 998.268 60.2393 1000.44 107.756C1000.68 112.947 992.622 112.938 992.386 107.756C990.031 55.8477 1031.7 12.0773 1083.58 11.5773Z" fill="black"/>
<path d="M1071.61 165.646C1079.56 167.097 1087.72 167.097 1095.67 165.646C1100.75 164.737 1102.95 172.484 1097.81 173.42C1088.44 175.143 1078.83 175.143 1069.46 173.42C1064.37 172.502 1066.52 164.728 1071.61 165.646Z" fill="black"/>
<path d="M1083.58 30.9802C1128.91 31.5349 1161.99 72.6685 1154.11 116.993C1153.2 122.085 1145.44 119.93 1146.34 114.848C1147.97 105.63 1147.58 96.1675 1145.19 87.1162C1142.8 78.0648 1138.47 69.6411 1132.51 62.4291C1126.54 55.2172 1119.07 49.3895 1110.63 45.3501C1102.18 41.3107 1092.96 39.1562 1083.6 39.036C1043.95 39.527 1013.96 75.5234 1020.81 114.657C1021.72 119.73 1013.93 121.931 1013.03 116.803C1005.27 72.5321 1038.34 31.5349 1083.58 30.9802Z" fill="black"/>
<path d="M1083.58 50.3741C1095.02 50.4935 1106.14 54.2405 1115.31 61.0758C1115.45 61.1849 1115.56 61.3031 1115.69 61.4122C1115.81 61.5213 1115.99 61.594 1116.13 61.7032C1132.7 75.0598 1140.07 97.3723 1133.93 117.903C1131.23 126.775 1126.25 134.785 1119.49 141.132C1112.73 147.479 1104.43 151.941 1095.4 154.072C1055.3 163.164 1019.51 122.74 1034.53 84.0611C1042.45 63.758 1061.95 50.7651 1083.58 50.3741ZM1046.3 127.141C1064.97 156.027 1109.53 152.599 1123.97 121.558C1132.79 102.6 1126.62 80.7061 1110.79 67.7041C1102.93 61.8244 1093.4 58.5816 1083.58 58.439C1049.09 59.03 1027.26 97.6814 1046.3 127.141Z" fill="black"/>
<path d="M1083.58 69.7681C1097.47 70.159 1109.85 78.3967 1114.7 91.5896C1117 98.0072 1117.27 104.973 1115.48 111.549C1113.69 118.125 1109.93 123.995 1104.7 128.368C1081.34 147.653 1045.68 126.722 1051 96.9359C1053.84 81.0971 1067.8 70.2136 1083.58 69.7681ZM1083.58 127.959C1090.21 127.902 1096.55 125.244 1101.24 120.557C1105.93 115.87 1108.59 109.53 1108.65 102.9C1108.65 88.9438 1097.25 78.2148 1083.58 77.8329C1069.94 78.2148 1058.52 88.9438 1058.52 102.9C1058.58 109.527 1061.24 115.865 1065.93 120.551C1070.62 125.237 1076.95 127.897 1083.58 127.959Z" fill="black"/>
<path d="M1082.38 89.2893C1082.77 89.1885 1083.18 89.1487 1083.58 89.1711C1083.98 89.1499 1084.38 89.1866 1084.77 89.2802C1091.68 90.1895 1097.31 95.5539 1097.31 102.919C1097.27 106.484 1095.84 109.893 1093.33 112.423C1090.82 114.954 1087.42 116.408 1083.86 116.476C1080.29 116.545 1076.84 115.223 1074.23 112.791C1071.63 110.358 1070.07 107.007 1069.89 103.446C1069.55 95.8813 1075.31 90.2167 1082.38 89.2893ZM1083.58 108.565C1090.92 108.565 1090.86 97.6543 1083.58 97.2269C1076.31 97.6179 1076.26 108.565 1083.58 108.565Z" fill="black"/>
<path d="M961.672 71.2956L962.353 71.9776L963.035 71.2956C966.672 67.6587 972.419 73.3141 968.736 76.9874L965.208 80.5244C964.446 81.268 963.423 81.6842 962.358 81.6842C961.293 81.6842 960.27 81.268 959.508 80.5244L955.971 76.9874C952.297 73.3141 957.998 67.6133 961.672 71.2956Z" fill="black"/>
<path d="M959.508 -89.7656C960.272 -90.505 961.294 -90.9183 962.358 -90.9183C963.422 -90.9183 964.444 -90.505 965.208 -89.7656L978.065 -76.9L1033.78 -21.1823C1034.52 -20.4188 1034.94 -19.3963 1034.94 -18.3319C1034.94 -17.2675 1034.52 -16.245 1033.78 -15.4814L965.208 53.0928C964.446 53.8364 963.423 54.2526 962.358 54.2526C961.293 54.2526 960.27 53.8364 959.508 53.0928L890.924 -15.4814C890.183 -16.245 889.768 -17.2675 889.768 -18.3319C889.768 -19.3963 890.183 -20.4188 890.924 -21.1823L959.508 -89.7656ZM1025.24 -18.3364L972.364 -71.1991L962.363 -81.2007L899.48 -18.3364L962.353 44.546L1025.24 -18.3364Z" fill="black"/>
<path d="M959.508 25.6613L918.356 -15.4814C917.985 -15.8312 917.689 -16.2542 917.489 -16.7236C917.289 -17.193 917.188 -17.6988 917.192 -18.2091C917.188 -18.2605 917.188 -18.3123 917.192 -18.3637C917.188 -18.4121 917.188 -18.4608 917.192 -18.5092C917.188 -19.0195 917.289 -19.5253 917.489 -19.9947C917.689 -20.4641 917.985 -20.887 918.356 -21.2369L959.508 -62.3887C960.273 -63.1281 961.295 -63.5414 962.358 -63.5414C963.422 -63.5414 964.444 -63.1281 965.209 -62.3887L1006.35 -21.2369C1007.09 -20.4733 1007.51 -19.4508 1007.51 -18.3864C1007.51 -17.322 1007.09 -16.2996 1006.35 -15.536L965.209 25.6067C964.453 26.3577 963.435 26.7838 962.369 26.794C961.304 26.8042 960.277 26.3977 959.508 25.6613ZM997.805 -18.3364L962.345 -53.7964L926.885 -18.3364L962.345 17.1236L997.805 -18.3364Z" fill="black"/>
<path d="M1438.27 68.8133C1438.31 68.1724 1438.48 67.5469 1438.78 66.978C1439.08 66.4091 1439.5 65.9098 1440 65.5128V72.0502C1439.46 71.7054 1439.01 71.2262 1438.71 70.659C1438.41 70.0918 1438.26 69.456 1438.27 68.8133Z" fill="black"/>
<path d="M1435.3 44.4005C1436.86 44.6824 1438.43 44.8915 1440 45.0643V53.1019C1437.73 52.8958 1435.44 52.5927 1433.15 52.1926C1428.06 51.2743 1430.22 43.4913 1435.3 44.4005Z" fill="black"/>
<path d="M1384.48 -6.57098C1385.39 -1.49747 1377.61 0.702858 1376.71 -4.4252C1369.38 -46.2498 1398.53 -85.2195 1440 -89.802V-81.6916C1404.04 -77.2182 1378.06 -43.2766 1384.48 -6.57098Z" fill="black"/>
<path d="M1398.25 -37.1576C1401.67 -45.8651 1407.33 -53.5121 1414.67 -59.3217C1422 -65.1314 1430.74 -68.8967 1440 -70.2354V-62.0523C1409.84 -56.5969 1392.34 -21.3915 1410 5.94002C1413.33 11.1058 1417.73 15.4962 1422.91 18.8152C1428.09 22.1341 1433.91 24.3043 1440 25.1793V33.5443C1408.67 28.7617 1385.68 -4.80711 1398.25 -37.1576Z" fill="black"/>
<path d="M1414.71 -24.2827C1417.09 -37.6393 1427.38 -47.4317 1440 -50.4958V-42.1673C1434.88 -40.618 1430.39 -37.4678 1427.19 -33.1788C1423.98 -28.8899 1422.24 -23.6879 1422.22 -18.3363C1422.26 -12.9764 1424.01 -7.76937 1427.2 -3.46656C1430.4 0.836246 1434.88 4.0124 1440 5.60369V13.5867C1424.2 9.64977 1411.36 -5.60712 1414.71 -24.2827Z" fill="black"/>
</g>
</g>
<defs>
<clipPath id="clip0_36_2752">
<rect width="727.385" height="347" fill="white" transform="translate(0 -28)"/>
</clipPath>
<clipPath id="clip1_36_2752">
<rect width="727.385" height="347" fill="white" transform="matrix(-1 0 0 1 1440 -28)"/>
</clipPath>
</defs>
</svg>
